<svg version="1.1" xmlns="http://www.w3.org/2000/svg" xmlns:xlink="http://www.w3.org/1999/xlink" x="0px" y="0px" viewBox="0 0 813.683 1163.078" xml:space="preserve">
	<g fill="#FFE7C0" stroke="#010101" stroke-width="4">
		<path d="M812,1078.781c0,0-337.16-524.976-339.852-537.938c-4.483-21.582,13.461-62.645,6.458-141.052c-2.8-31.35-15.085-95.652-38.794-112.946c-23.709-17.294-44.165-19.988-52.787-30.797c-8.621-10.809-9.387-18.701-25.331-28.645s-21.539-3.229-40.94-5.936c-17.211-2.401-23.19-28.655-44.743-35.141s-56.57,4.858-56.57,4.858c-17.825-29.364-37.759-60.657-52.067-89.751c-38.885-33.808-59.769-45.072-82.071-66.407C45.939,14.479,19.942-2.605,9.277,3.119c-14.156,7.597-6.102,34.73,10.789,50.256C39.469,71.21,42.843,78.547,64.25,107.416c15.623,21.068,39.332,33.51,39.332,33.51s14.021,49.701,24.25,84.848c6.886,23.66,2.155,12.97,8.621,58.366c3.233,22.698,5.122,30.259,2.966,39.718c-2.156,9.46-8.356,20.818-8.356,20.818s-7.718-13.221-14.55-28.651c-3.226-21.625-12.401-44.335-22.634-55.668c-21.362-23.658-35.568-25.926-54.963-17.281C15.118,253.684,15.21,259.31,23.84,294.977s-0.048,34.035,15.629,70.249c17.075,39.444,19.843,34.985,25.862,55.106s13.8,51.672,31.793,69.173c18.183,17.685,48.581,36.113,62.501,44.312c28.543,16.811,66.089,28.121,98.094,38.386C288.353,631.035,628.255,1162,628.255,1162"/>
		<path d="M24.785,291.159c9.685,1.821,7.264-8.499,17.554-15.177c10.29-6.678,22.396-4.25,24.212-9.106c1.816-4.857-7.264-29.14-7.264-29.14 M79.262,311.799c-27.844,9.713-32.686,20.641-36.923,31.568 M82.223,317.381c-27.844,9.713-32.686,20.641-36.923,31.568 M72.604,28.9c-21.791,3.642-21.185,7.892-24.817,11.535 M78.959,32.239c-21.791,3.642-21.185,7.892-24.817,11.535 M155.708,91.172c-17.434,0.818-28.356,9.081-33.945,11.753 M160.674,95.375c-18.857,2.365-31.689,7.089-32.641,10.881 M38.384,10.12c-9.018,0.238-13.063,7.273-19.459,6.664C13.922,16.308,7.297,14.88,2.313,10.12"/>
	</g>
</svg>